<svg xmlns="http://www.w3.org/2000/svg" width="24px" height="24px" viewBox="0 0 24 24" fill="#fff"><path d="M 22.851562 6.589844 C 22.058594 4.949219 20.910156 3.570312 19.390625 2.414062 C 19.433594 3.199219 19.519531 4.882812 19.519531 4.882812 C 19.519531 4.882812 19.617188 5 19.652344 5.050781 C 21.191406 7.109375 21.75 9.386719 21.238281 11.859375 C 20.214844 16.820312 15.167969 19.847656 10.050781 18.609375 C 5.5625 17.523438 2.5625 13.125 3.414062 8.761719 C 4.082031 5.320312 6.207031 3.027344 9.65625 1.859375 L 9.78125 1.816406 L 9.878906 1.746094 C 10.296875 1.179688 10.703125 0.605469 11.140625 0 C 5.914062 0.25 0.65625 4.265625 0.0546875 10.378906 C -0.527344 16.292969 3.632812 21.566406 9.578125 22.726562 C 15.777344 23.933594 21.675781 20.429688 23.457031 14.820312 C 24.347656 12.019531 24.140625 9.257812 22.851562 6.589844 Z M 8.101562 10.289062 C 8.363281 12.671875 10.515625 14.292969 13.007812 14.027344 C 15.453125 13.769531 17.242188 11.476562 16.777344 9.15625 C 16.417969 7.347656 16.019531 5.542969 15.636719 3.738281 C 15.476562 2.992188 15.316406 2.246094 15.148438 1.457031 C 15.082031 1.515625 15.050781 1.539062 15.023438 1.5625 C 14.1875 2.351562 13.347656 3.140625 12.511719 3.925781 C 11.488281 4.886719 10.46875 5.847656 9.445312 6.800781 C 8.421875 7.761719 7.953125 8.933594 8.101562 10.289062 Z M 8.101562 10.289062"/></svg>